<svg width="22" height="22" viewBox="0 0 22 22" fill="none" xmlns="http://www.w3.org/2000/svg">
<path d="M2.97011 6.6827L10.7801 10.9269C10.9176 11.0002 11.0826 11.0002 11.2201 10.9269L19.0301 6.6827C19.1758 6.61075 19.2641 6.4584 19.2541 6.29621C19.2441 6.13402 19.1377 5.99369 18.9843 5.9402L11.1743 2.7502C11.0627 2.70436 10.9375 2.70436 10.8259 2.7502L3.01594 5.9402C2.8625 5.99369 2.75614 6.13402 2.74613 6.29621C2.73612 6.4584 2.82441 6.61075 2.97011 6.6827Z" fill="#637381"/>
<path d="M18.9841 9.77164L17.3066 9.05664L11.2199 12.3658C11.0824 12.4391 10.9174 12.4391 10.7799 12.3658L4.69326 9.05664L3.01576 9.77164C2.87097 9.84765 2.78027 9.99769 2.78027 10.1612C2.78027 10.3248 2.87097 10.4748 3.01576 10.5508L10.8258 15.0425C10.9608 15.1251 11.1307 15.1251 11.2658 15.0425L19.0758 10.5508C19.2137 10.459 19.2883 10.2976 19.269 10.1331C19.2496 9.9686 19.1395 9.8289 18.9841 9.77164Z" fill="#637381"/>
<path d="M18.9842 13.8416L17.5542 13.2183L11.22 16.6649C11.0825 16.7383 10.9175 16.7383 10.78 16.6649L4.44585 13.2183L3.01585 13.8416C2.86692 13.9188 2.77344 14.0726 2.77344 14.2403C2.77344 14.4081 2.86692 14.5619 3.01585 14.6391L10.8258 19.2224C10.9633 19.2958 11.1283 19.2958 11.2658 19.2224L19.0758 14.6391C19.2179 14.546 19.2953 14.3808 19.2759 14.2121C19.2566 14.0434 19.1437 13.9 18.9842 13.8416Z" fill="#637381"/>
</svg>
