<svg width="22" height="22" viewBox="0 0 22 22" fill="none" xmlns="http://www.w3.org/2000/svg">
<path fill-rule="evenodd" clip-rule="evenodd" d="M9.59995 2.84086C10.0094 2.17089 10.9824 2.17089 11.3918 2.84086L14.8134 8.43974C15.241 9.13941 14.7374 10.0373 13.9174 10.0373H7.07435C6.25438 10.0373 5.75083 9.13941 6.17841 8.43974L9.59995 2.84086ZM15.7896 20.6248C18.1817 20.6248 20.1209 18.6856 20.1209 16.2935C20.1209 13.9014 18.1817 11.9623 15.7896 11.9623C13.3976 11.9623 11.4584 13.9014 11.4584 16.2935C11.4584 18.6856 13.3976 20.6248 15.7896 20.6248Z" fill="#637381"/>
<path opacity="0.48" d="M1.83337 13.9438C1.83337 13.1154 2.50495 12.4438 3.33337 12.4438H8.03337C8.8618 12.4438 9.53337 13.1154 9.53337 13.9438V18.6438C9.53337 19.4723 8.8618 20.1438 8.03337 20.1438H3.33337C2.50495 20.1438 1.83337 19.4723 1.83337 18.6438V13.9438Z" fill="#919EAB"/>
</svg>
