<svg width="22" height="22" viewBox="0 0 22 22" fill="none" xmlns="http://www.w3.org/2000/svg">
<path d="M8.25004 10.0833C10.2751 10.0833 11.9167 8.44171 11.9167 6.41667C11.9167 4.39162 10.2751 2.75 8.25004 2.75C6.225 2.75 4.58337 4.39162 4.58337 6.41667C4.58337 8.44171 6.225 10.0833 8.25004 10.0833Z" fill="#919EAB"/>
<path d="M15.5834 11.9165C17.1022 11.9165 18.3334 10.6853 18.3334 9.1665C18.3334 7.64772 17.1022 6.4165 15.5834 6.4165C14.0646 6.4165 12.8334 7.64772 12.8334 9.1665C12.8334 10.6853 14.0646 11.9165 15.5834 11.9165Z" fill="#919EAB"/>
<path d="M19.25 18.3335C19.7563 18.3335 20.1667 17.9231 20.1667 17.4168C20.1652 15.669 19.1698 14.0742 17.6004 13.3051C16.0309 12.5359 14.1606 12.7263 12.7784 13.796C10.9424 11.9672 8.18652 11.4222 5.79267 12.4147C3.39881 13.4071 1.83688 15.742 1.83337 18.3335C1.83337 18.8397 2.24378 19.2501 2.75004 19.2501H13.75C14.2563 19.2501 14.6667 18.8397 14.6667 18.3335" fill="#637381"/>
</svg>
