<svg width="366" height="274" viewBox="0 0 366 274" fill="none" xmlns="http://www.w3.org/2000/svg">
<g opacity="0.2">
<path fill-rule="evenodd" clip-rule="evenodd" d="M0.333252 151.294C0.333252 182.848 11.7083 211.601 30.4269 233.331C51.9011 258.269 83.0411 273.947 117.752 274C132.922 274.022 147.427 271.042 160.751 265.6C167.64 262.785 175.351 263.108 182.023 266.443C189.849 270.35 198.613 272.54 207.868 272.54C211.691 272.54 215.435 272.163 219.056 271.449C229.393 269.416 238.799 264.607 246.524 257.794C251.379 253.512 257.597 251.359 263.951 251.366H264.059C285.058 251.366 304.563 244.72 320.757 233.331C335.234 223.163 347.056 209.207 354.933 192.821C361.8 178.542 365.667 162.412 365.667 145.34C365.667 86.7874 320.172 39.314 264.059 39.314C258.339 39.314 252.735 39.8181 247.267 40.7589C232.79 16.303 206.865 0 177.29 0C164.804 0 152.967 2.90568 142.371 8.11438C132.294 13.0518 123.335 20.0677 116.006 28.6178C91.1196 29.0318 68.1087 37.5151 49.275 51.6729C19.6285 73.9459 0.333252 110.272 0.333252 151.294Z" fill="url(#paint0_linear_67_6185)"/>
</g>
<path opacity="0.05" d="M223.343 156.935C221.632 158.969 219.784 158.935 218.683 158.648L218.724 157.595C218.724 157.595 223.275 155.515 223.159 155.952C223.116 156.116 223.202 156.509 223.343 156.935Z" fill="#FF4842"/>
<path opacity="0.05" d="M235.815 159.237C232.91 160.917 231.205 158.948 230.809 158.391C231.053 157.752 231.419 156.714 231.344 156.418C231.235 155.979 235.779 158.059 235.779 158.059L235.815 159.237Z" fill="#FF4842"/>
<path opacity="0.05" d="M232.703 142.483C232.703 142.483 235.467 140.89 236.07 141.607C236.673 142.324 232.703 142.483 232.703 142.483Z" fill="#FF4842"/>
<path opacity="0.05" d="M234.373 143.359C234.373 143.359 233.918 143.586 234.921 143.878C235.925 144.169 234.373 143.359 234.373 143.359Z" fill="#FF4842"/>
<path opacity="0.05" d="M217.654 138.978C217.561 139.006 219.955 140.594 222.117 139.279C222.108 139.279 218.194 138.815 217.654 138.978Z" fill="#FF4842"/>
<path opacity="0.05" d="M221.999 142.016C221.999 142.016 221.343 143.304 220.001 143.495C218.658 143.687 221.999 142.016 221.999 142.016Z" fill="#FF4842"/>
<path opacity="0.05" d="M230.786 144.811C230.786 144.811 233.936 149.817 233.333 150.998C232.73 152.179 230.786 144.811 230.786 144.811Z" fill="#FF4842"/>
<path opacity="0.05" d="M224.572 164.717C224.572 164.997 224.572 165.258 224.545 165.474C224.463 166.487 221.971 166.105 221.971 166.105C219.696 166.421 218.877 165.329 218.606 164.284C218.521 163.945 218.479 163.597 218.481 163.247C218.479 163.038 218.493 162.83 218.522 162.623V162.416C219.012 162.268 219.544 162.377 219.937 162.705C220.95 163.527 222.292 162.896 222.292 162.896C222.292 162.896 223.277 162.978 223.657 163.306C223.871 163.49 224.224 163.047 224.492 162.623C224.508 162.896 224.533 163.39 224.549 163.918C224.568 164.189 224.572 164.462 224.572 164.717Z" fill="#FF4842"/>
<path opacity="0.05" d="M220.576 164.658C220.576 164.658 219.894 165.327 218.606 164.293C218.521 163.954 218.479 163.606 218.481 163.256C219.138 163.756 220.358 164.658 220.576 164.658Z" fill="#FF4842"/>
<path opacity="0.05" d="M224.572 164.717C224.46 164.803 224.317 164.84 224.177 164.817C224.037 164.795 223.912 164.716 223.833 164.598C224.098 164.396 224.342 164.168 224.561 163.916C224.568 164.189 224.572 164.462 224.572 164.717Z" fill="#FF4842"/>
<path opacity="0.05" d="M229.913 165.186C229.913 165.468 229.913 165.73 229.938 165.943C230.02 166.958 232.512 166.574 232.512 166.574C234.787 166.892 235.606 165.8 235.877 164.753C236.011 164.21 236.04 163.646 235.961 163.092V162.885C235.47 162.74 234.939 162.848 234.544 163.174C233.531 163.996 232.191 163.365 232.191 163.365C232.191 163.365 231.205 163.449 230.825 163.777C230.611 163.961 230.259 163.518 229.993 163.094C229.977 163.368 229.949 163.861 229.933 164.389C229.915 164.655 229.911 164.929 229.913 165.186Z" fill="#FF4842"/>
<path opacity="0.05" d="M233.909 165.122C233.909 165.122 234.591 165.791 235.877 164.758C235.963 164.419 236.006 164.072 236.004 163.722C235.345 164.221 234.125 165.122 233.909 165.122Z" fill="#FF4842"/>
<path opacity="0.05" d="M229.913 165.185C230.025 165.272 230.168 165.308 230.307 165.286C230.447 165.264 230.571 165.184 230.65 165.067C230.384 164.865 230.14 164.637 229.922 164.385C229.915 164.655 229.911 164.928 229.913 165.185Z" fill="#FF4842"/>
<g opacity="0.05">
<path d="M243.595 80.8825C243.643 80.7779 243.689 80.6732 243.732 80.5708C243.775 80.4684 243.791 80.4115 243.816 80.3296C243.732 80.5097 243.659 80.6943 243.595 80.8825Z" fill="#FF4842"/>
</g>
<path fill-rule="evenodd" clip-rule="evenodd" d="M120.279 212.701C119.727 212.037 119.474 211.175 119.58 210.318L129.624 128.133L130.457 121.307C130.65 119.736 131.978 118.552 133.561 118.54L162.981 118.344C163.827 118.339 164.636 117.993 165.224 117.385C165.812 116.776 166.131 115.957 166.107 115.111L166.096 114.799C166.067 113.946 166.386 113.117 166.979 112.503C167.572 111.89 168.389 111.543 169.243 111.543H200.158C201.893 111.543 203.301 112.948 203.305 114.683C203.305 114.824 203.296 114.966 203.278 115.106C203.159 115.992 203.423 116.886 204.003 117.566C204.583 118.246 205.425 118.647 206.318 118.67L236.009 119.427C236.922 119.45 237.781 119.869 238.361 120.575C238.941 121.281 239.186 122.204 239.031 123.105L224.187 209.802L223.908 211.44C223.838 211.859 223.683 212.258 223.452 212.614L120.279 212.701Z" fill="#005249"/>
<rect x="209.878" y="94.1311" width="17.3849" height="59.0063" transform="rotate(34.64 209.878 94.1311)" fill="white"/>
<rect x="210.909" y="96.4314" width="12.2734" height="12.2734" transform="rotate(34.804 210.909 96.4314)" fill="#FFC107"/>
<rect opacity="0.5" x="203.014" y="108.576" width="12.29" height="12.29" transform="rotate(34.64 203.014 108.576)" fill="#FFC107"/>
<rect opacity="0.3" x="194.578" y="120.784" width="12.29" height="12.29" transform="rotate(34.64 194.578 120.784)" fill="#FFC107"/>
<rect x="189.67" y="91.0906" width="17.3849" height="58.7833" transform="rotate(16.29 189.67 91.0906)" fill="white"/>
<rect x="191.861" y="92.7192" width="12.29" height="12.29" transform="rotate(16.29 191.861 92.7192)" fill="#FF4842"/>
<rect opacity="0.5" x="187.698" y="106.961" width="12.29" height="12.29" transform="rotate(16.29 187.698 106.961)" fill="#FF4842"/>
<rect opacity="0.3" x="183.536" y="121.2" width="12.29" height="12.29" transform="rotate(16.29 183.536 121.2)" fill="#FF4842"/>
<rect x="177.85" y="91.9802" width="17.3849" height="58.7833" transform="rotate(4.6 177.85 91.9802)" fill="white"/>
<rect x="180.316" y="93.1326" width="12.29" height="12.29" transform="rotate(4.59999 180.316 93.1326)" fill="#1890FF"/>
<rect opacity="0.5" x="179.125" y="107.919" width="12.29" height="12.29" transform="rotate(4.59999 179.125 107.919)" fill="#1890FF"/>
<rect opacity="0.3" x="177.935" y="122.71" width="12.29" height="12.29" transform="rotate(4.6 177.935 122.71)" fill="#1890FF"/>
<rect x="170.054" y="94.3362" width="17.3849" height="58.7833" transform="rotate(-2.61 170.054 94.3362)" fill="white"/>
<rect x="172.643" y="95.1665" width="12.2901" height="12.29" transform="rotate(-2.61 172.643 95.1665)" fill="#00AB55"/>
<rect opacity="0.5" x="173.8" y="109.518" width="12.3054" height="12.3054" transform="rotate(-2.8624 173.8 109.518)" fill="#00AB55"/>
<rect opacity="0.3" x="173.993" y="124.811" width="12.29" height="12.29" transform="rotate(-2.61 173.993 124.811)" fill="#00AB55"/>
<path d="M177.428 171.803L161.982 177.778L139.407 186.505C138.553 184.912 137.297 182.759 135.743 180.19C130.396 171.329 121.548 157.547 113.671 145.434C104.796 131.781 97.1572 120.26 97.1572 120.26L102.687 118.667L147.856 105.553L177.428 171.803Z" fill="#F4F6F8"/>
<path opacity="0.1" d="M177.428 171.803L161.982 177.778C153.353 179.576 144.548 180.385 135.736 180.19C130.389 171.329 121.541 157.547 113.664 145.434L102.689 118.658L147.855 105.553L177.428 171.803Z" fill="black"/>
<path d="M188.919 168.085C188.919 168.085 164.924 182.279 129.098 179.069L100.538 109.438L114.226 107.085L161.543 98.9592L188.394 166.731L188.919 168.085Z" fill="#00AB55"/>
<path opacity="0.1" d="M188.385 166.74C182.735 167.017 176.197 166.99 169.621 166.205C162.503 165.368 155.344 163.643 149.207 160.48C144.076 157.838 139.689 154.964 135.864 151.517C125.913 142.567 119.755 129.765 114.226 107.094L161.543 98.9683L188.385 166.74Z" fill="#FF4842"/>
<path d="M205.988 162.846C205.988 162.846 188.301 166.31 170.297 164.178C163.179 163.34 156.02 161.615 149.883 158.452C144.752 155.811 140.367 152.937 136.54 149.489C124.224 138.41 117.721 121.43 111.015 87.1401C111.015 87.1401 140.419 94.2375 169.496 78.6912C169.487 78.7025 179.287 139.864 205.988 162.846Z" fill="white"/>
<path opacity="0.3" d="M126.225 99.7283C126.225 99.7283 150.136 98.3767 156.812 93.2227L157.825 96.4766C157.825 96.4766 142.026 103.447 126.225 103.531V99.7283Z" fill="#00AB55"/>
<path opacity="0.3" d="M126.225 115.793C126.225 115.793 149.376 114.526 166.868 106.077L167.459 107.429C167.459 107.429 153.579 115.532 126.225 117.652L126.225 115.793Z" fill="#00AB55"/>
<path opacity="0.3" d="M128.088 122.053C128.088 122.053 151.239 120.786 168.729 112.337L169.321 113.689C169.321 113.689 155.44 121.789 128.088 123.912V122.053Z" fill="#00AB55"/>
<path opacity="0.3" d="M129.949 128.322C129.949 128.322 153.101 127.055 170.592 118.606L171.182 119.958C171.182 119.958 157.301 128.061 129.949 130.181L129.949 128.322Z" fill="#00AB55"/>
<path opacity="0.3" d="M131.813 134.591C131.813 134.591 154.964 133.324 172.454 124.875L173.045 126.227C173.045 126.227 159.165 134.33 131.813 136.451V134.591Z" fill="#00AB55"/>
<path opacity="0.3" d="M133.674 140.863C133.674 140.863 156.825 139.595 174.317 131.146L174.907 132.498C174.907 132.498 161.026 140.599 133.674 142.722V140.863Z" fill="#00AB55"/>
<path d="M296.458 218.701C296.458 218.701 286.837 218.121 287.97 224.863C287.97 224.863 287.743 226.053 288.826 226.595C288.826 226.595 288.842 226.094 289.811 226.265C290.157 226.323 290.508 226.34 290.858 226.315C291.33 226.283 291.778 226.098 292.134 225.787C292.134 225.787 294.84 224.67 295.891 220.251C295.891 220.251 296.669 219.286 296.638 219.038L295.015 219.72C295.015 219.72 295.57 220.892 295.134 221.864C295.134 221.864 295.081 219.764 294.769 219.816C294.706 219.816 293.925 220.221 293.925 220.221C293.925 220.221 294.879 222.269 294.153 223.744C294.153 223.744 294.426 221.229 293.62 220.369L292.483 221.036C292.483 221.036 293.598 223.143 292.842 224.863C292.842 224.863 293.036 222.226 292.241 221.197L291.206 222.005C291.206 222.005 292.255 224.083 291.616 225.509C291.616 225.509 291.531 222.437 290.981 222.205C290.981 222.205 290.071 223.004 289.939 223.343C289.939 223.343 290.655 224.849 290.209 225.646C290.209 225.646 289.936 223.598 289.713 223.598C289.713 223.598 288.803 224.963 288.717 225.873C288.717 225.873 288.755 224.49 289.495 223.459C288.974 223.559 288.493 223.808 288.111 224.176C288.111 224.176 288.252 223.216 289.718 223.134C289.718 223.134 290.464 222.105 290.662 222.041C290.662 222.041 289.206 221.921 288.323 222.312C288.323 222.312 289.101 221.402 290.931 221.818L291.952 220.986C291.952 220.986 290.034 220.722 289.222 221.013C289.222 221.013 290.157 220.212 292.228 220.785L293.34 220.121C293.34 220.121 291.707 219.768 290.733 219.893C290.733 219.893 291.759 219.338 293.668 219.939L294.462 219.582C294.462 219.582 293.265 219.354 292.915 219.309C292.564 219.263 292.544 219.177 292.544 219.177C293.303 219.049 294.082 219.135 294.794 219.427C294.794 219.427 296.485 218.808 296.458 218.701Z" fill="#00AB55"/>
<ellipse opacity="0.1" cx="289.832" cy="227.182" rx="6.80832" ry="1.15141" fill="#00AB55"/>
<path d="M300.938 196.444C300.938 196.444 295.516 196.117 296.16 199.919C296.092 200.314 296.286 200.708 296.64 200.895C296.64 200.895 296.651 200.613 297.197 200.709C297.392 200.741 297.59 200.75 297.787 200.736C298.052 200.719 298.305 200.615 298.506 200.44C298.506 200.44 300.03 199.81 300.624 197.318C300.624 197.318 301.064 196.774 301.045 196.635L300.135 197.025C300.135 197.025 300.447 197.687 300.201 198.235C300.201 198.235 300.172 197.05 299.996 197.077C299.96 197.077 299.521 197.304 299.521 197.304C299.521 197.304 300.058 198.442 299.653 199.291C299.653 199.291 299.807 197.873 299.352 197.386L298.708 197.764C298.708 197.764 299.336 198.952 298.911 199.921C298.911 199.921 299.02 198.433 298.572 197.855L297.989 198.31C297.989 198.31 298.579 199.482 298.217 200.285C298.217 200.285 298.169 198.554 297.86 198.424C297.639 198.611 297.441 198.825 297.27 199.059C297.27 199.059 297.675 199.91 297.425 200.358C297.425 200.358 297.27 199.205 297.145 199.2C297.145 199.2 296.635 199.962 296.583 200.486C296.608 200 296.759 199.529 297.022 199.12C296.728 199.176 296.456 199.317 296.242 199.525C296.242 199.525 296.321 198.984 297.152 198.938C297.152 198.938 297.573 198.358 297.684 198.322C297.684 198.322 296.863 198.253 296.365 198.474C296.365 198.474 296.804 197.964 297.835 198.196L298.413 197.725C298.413 197.725 297.329 197.578 296.872 197.741C296.872 197.741 297.4 197.286 298.567 197.619L299.195 197.243C298.712 197.137 298.217 197.095 297.723 197.118C297.723 197.118 298.303 196.804 299.377 197.143L299.832 196.943C299.832 196.943 299.15 196.808 298.959 196.788C298.768 196.767 298.749 196.713 298.749 196.713C299.177 196.642 299.617 196.69 300.019 196.854C300.019 196.854 300.957 196.504 300.938 196.444Z" fill="#00AB55"/>
<ellipse opacity="0.1" cx="297.206" cy="201.225" rx="3.83878" ry="0.648521" fill="#00AB55"/>
<path d="M268.926 199.744C268.926 199.744 262.377 199.348 263.151 203.937C263.069 204.415 263.303 204.89 263.731 205.116C263.731 205.116 263.731 204.775 264.414 204.889C264.649 204.928 264.888 204.94 265.126 204.923C265.448 204.901 265.753 204.775 265.996 204.563C265.996 204.563 267.836 203.803 268.553 200.795C268.553 200.795 269.083 200.14 269.061 199.969L267.943 200.442C267.943 200.442 268.321 201.239 268.023 201.901C268.023 201.901 267.987 200.472 267.775 200.504C267.732 200.504 267.202 200.781 267.202 200.781C267.202 200.781 267.85 202.169 267.361 203.18C267.361 203.18 267.547 201.469 266.999 200.881L266.221 201.337C266.221 201.337 266.979 202.772 266.464 203.942C266.464 203.942 266.596 202.147 266.057 201.439L265.352 201.99C265.352 201.99 266.066 203.403 265.629 204.374C265.629 204.374 265.575 202.283 265.199 202.126C265.199 202.126 264.582 202.67 264.489 202.893C264.489 202.893 264.976 203.919 264.673 204.461C264.673 204.461 264.487 203.068 264.334 203.061C264.334 203.061 263.722 203.985 263.652 204.616C263.682 204.031 263.865 203.465 264.182 202.973C263.828 203.04 263.501 203.21 263.242 203.462C263.242 203.462 263.338 202.809 264.334 202.752C264.334 202.752 264.842 202.051 264.978 202.01C264.978 202.01 263.986 201.926 263.386 202.192C263.386 202.192 263.913 201.578 265.158 201.858L265.854 201.289C265.854 201.289 264.551 201.111 263.995 201.307C263.995 201.307 264.633 200.763 266.043 201.161L266.801 200.706C266.801 200.706 265.688 200.467 265.024 200.554C265.024 200.554 265.725 200.176 267.022 200.586L267.563 200.342C267.563 200.342 266.749 200.183 266.51 200.158C266.271 200.133 266.26 200.067 266.26 200.067C266.776 199.979 267.306 200.038 267.791 200.235C267.791 200.235 268.947 199.814 268.926 199.744Z" fill="#00AB55"/>
<ellipse opacity="0.1" cx="264.416" cy="205.517" rx="4.63521" ry="0.782776" fill="#00AB55"/>
<rect x="212.023" y="95.1497" width="38.8361" height="69.4986" rx="4.73723" transform="rotate(-71.99 212.023 95.1497)" fill="white"/>
<g opacity="0.2">
<circle cx="231.417" cy="78.7803" r="7.136" fill="#00AB55"/>
</g>
<g opacity="0.2">
<rect x="248.49" y="77.4956" width="1.95466" height="31.0903" transform="rotate(-71.99 248.49 77.4956)" fill="#00AB55"/>
</g>
<g opacity="0.2">
<rect width="1.95467" height="15.8376" transform="matrix(0.309182 -0.951003 0.951002 0.309184 246.949 82.2349)" fill="#00AB55"/>
</g>
<g opacity="0.2">
<rect x="245.406" y="86.9773" width="1.95466" height="25.6154" transform="rotate(-71.99 245.406 86.9773)" fill="#00AB55"/>
</g>
<g opacity="0.2">
<rect x="243.865" y="91.7178" width="1.95466" height="31.0903" transform="rotate(-71.99 243.865 91.7178)" fill="#00AB55"/>
</g>
<g opacity="0.5">
<rect x="262.461" y="107.251" width="3.77962" height="8.6037" transform="rotate(-71.99 262.461 107.251)" fill="#00AB55"/>
</g>
<rect x="205.959" y="162.59" width="38.2841" height="59.5985" rx="4" transform="rotate(-57.2648 205.959 162.59)" fill="white"/>
<rect x="213.387" y="160.344" width="10.8314" height="2.54857" transform="rotate(-57.57 213.387 160.344)" fill="#DFE3E8"/>
<rect x="220.263" y="162.196" width="23.7882" height="2.33695" transform="rotate(-57.57 220.263 162.196)" fill="#DFE3E8"/>
<rect x="224.477" y="164.87" width="23.7882" height="2.33695" transform="rotate(-57.57 224.477 164.87)" fill="#DFE3E8"/>
<rect x="228.69" y="167.549" width="23.7882" height="2.33695" transform="rotate(-57.57 228.69 167.549)" fill="#DFE3E8"/>
<rect width="23.7549" height="2.33368" transform="matrix(0.540758 -0.841178 0.841179 0.540757 233.049 171.431)" fill="#DFE3E8"/>
<rect x="237.115" y="172.902" width="23.7882" height="2.33695" transform="rotate(-57.57 237.115 172.902)" fill="#F4F6F8"/>
<rect x="241.329" y="175.577" width="23.7882" height="2.33695" transform="rotate(-57.57 241.329 175.577)" fill="#F4F6F8"/>
<rect x="259.019" y="164.171" width="6.1598" height="6.1598" transform="rotate(-57.57 259.019 164.171)" fill="#DFE3E8"/>
<path d="M205.283 128.445L170.449 128.821C169.145 128.834 168.095 129.895 168.094 131.199V134.077C168.093 135.368 167.063 136.423 165.773 136.455L140.638 137.058C139.541 137.085 138.569 136.36 138.282 135.301L137.102 130.962C136.818 129.915 135.863 129.192 134.778 129.205L101.203 129.567C100.507 129.574 99.8486 129.885 99.402 130.42C98.9554 130.954 98.7654 131.657 98.882 132.343L112.389 211.84C112.583 212.981 113.569 213.818 114.726 213.822L220.797 214.277C221.508 214.28 222.183 213.965 222.637 213.418C223.091 212.871 223.276 212.15 223.143 211.451L207.642 130.377C207.427 129.247 206.433 128.434 205.283 128.445Z" fill="url(#paint1_linear_67_6185)"/>
<ellipse opacity="0.1" cx="91.3568" cy="196.872" rx="3.6886" ry="0.507446" fill="#00AB55"/>
<ellipse opacity="0.1" cx="77.2281" cy="198.303" rx="3.6886" ry="0.507431" fill="#00AB55"/>
<ellipse opacity="0.1" cx="82.8829" cy="202.383" rx="2.62139" ry="0.359528" fill="#00AB55"/>
<ellipse opacity="0.1" cx="68.2195" cy="202.024" rx="2.62139" ry="0.359528" fill="#00AB55"/>
<path d="M77.1485 198.192C77.1485 198.192 82.3207 181.235 76.3384 174.443C71.8625 169.361 66.7813 169.969 64.5057 170.597C63.315 170.915 62.3235 171.739 61.7933 172.852C60.9969 174.568 61.1403 177.353 66.7562 180.605C76.1564 186.048 76.7412 193.514 76.7412 193.514L77.1485 198.192Z" fill="#00AB55"/>
<path d="M65.3184 173.002C65.3184 173.002 80.5643 177.781 77.151 198.192" stroke="#005249" stroke-width="0.5" stroke-linecap="round"/>
<path d="M74.2245 174.711C74.2245 174.711 72.1242 176.126 72.7932 178.254" stroke="#005249" stroke-width="0.5" stroke-linecap="round"/>
<path d="M66.8474 175.971C66.8474 175.971 68.1308 174.665 69.6941 175.387" stroke="#005249" stroke-width="0.5" stroke-linecap="round"/>
<path d="M72.875 182.539C72.875 182.539 75.13 181.401 75.7126 182.828" stroke="#005249" stroke-width="0.5" stroke-linecap="round"/>
<path d="M78.4526 184.921C78.4526 184.921 76.7596 184.787 76.73 185.604" stroke="#005249" stroke-width="0.5" stroke-linecap="round"/>
<path d="M77.3581 198.326C77.3581 198.326 71.2984 186.002 69.635 186.266C68.8454 186.396 68.4813 187.176 68.3152 187.954C68.111 188.964 68.2263 190.012 68.6452 190.953C69.5053 192.933 71.815 196.676 77.3581 198.326Z" fill="#00AB55"/>
<path d="M69.6802 188.61C69.6802 188.61 76.038 197.83 77.2667 198.235" stroke="#005249" stroke-width="0.5" stroke-linecap="round"/>
<path d="M69.0952 190.05H70.5788" stroke="#005249" stroke-width="0.5" stroke-linecap="round"/>
<path d="M70.8728 193.422L73.2007 193.522" stroke="#005249" stroke-width="0.5" stroke-linecap="round"/>
<path d="M72.2904 190.724L72.0378 191.936" stroke="#005249" stroke-width="0.5" stroke-linecap="round"/>
<path d="M74.764 194.412L74.7185 195.514" stroke="#005249" stroke-width="0.5" stroke-linecap="round"/>
<path d="M77.1782 198.326C77.1782 198.326 83.2356 186.002 84.899 186.266C85.6909 186.396 86.055 187.176 86.2188 187.954C86.4231 188.964 86.3077 190.012 85.8889 190.953C85.0287 192.933 82.7168 196.676 77.1782 198.326Z" fill="#00AB55"/>
<path d="M84.8557 188.61C84.8557 188.61 78.4842 197.83 77.2668 198.235" stroke="#005249" stroke-width="0.5" stroke-linecap="round"/>
<path d="M85.4407 190.05H83.957" stroke="#005249" stroke-width="0.5" stroke-linecap="round"/>
<path d="M83.6633 193.422L81.3354 193.522" stroke="#005249" stroke-width="0.5" stroke-linecap="round"/>
<path d="M82.2456 190.724L82.4982 191.936" stroke="#005249" stroke-width="0.5" stroke-linecap="round"/>
<path d="M79.7722 194.412L79.8177 195.514" stroke="#005249" stroke-width="0.5" stroke-linecap="round"/>
<path d="M66.7744 201.205C66.6095 201.07 66.4897 200.888 66.4308 200.684C66.3728 200.472 66.4742 200.249 66.672 200.153C66.8995 200.069 67.1271 200.222 67.3091 200.381C67.4912 200.54 67.6983 200.709 67.9258 200.67C67.6801 200.447 67.5695 200.112 67.6345 199.787C67.6439 199.721 67.6714 199.659 67.7142 199.607C67.8371 199.475 68.0601 199.532 68.208 199.637C68.6631 199.965 68.8064 200.599 68.8087 201.173C68.8315 200.963 68.8315 200.751 68.8087 200.54C68.7965 200.325 68.892 200.118 69.0636 199.987C69.1743 199.927 69.2992 199.897 69.4254 199.901C69.6368 199.871 69.8512 199.932 70.0147 200.069C70.1741 200.286 70.1647 200.584 69.992 200.791C69.8176 200.986 69.6114 201.151 69.3821 201.278C69.2081 201.382 69.0596 201.525 68.9475 201.694C68.9338 201.717 68.923 201.741 68.9156 201.767H67.5913C67.2948 201.617 67.02 201.428 66.7744 201.205Z" fill="#00AB55"/>
<path d="M89.8596 196.239C89.6944 196.106 89.5744 195.925 89.516 195.721C89.4576 195.509 89.5581 195.286 89.7549 195.19C89.9825 195.106 90.2101 195.259 90.3921 195.418C90.5741 195.577 90.7789 195.75 91.0133 195.716C90.7676 195.494 90.6562 195.16 90.7198 194.835C90.7299 194.769 90.7582 194.707 90.8017 194.656C90.9246 194.524 91.1476 194.58 91.2955 194.683C91.7619 195.013 91.8939 195.648 91.8962 196.221C91.919 196.01 91.919 195.797 91.8962 195.586C91.8756 195.374 91.9606 195.164 92.1238 195.026C92.235 194.968 92.3597 194.939 92.4856 194.942C92.6966 194.913 92.9104 194.973 93.0749 195.108C93.2348 195.326 93.2245 195.626 93.0499 195.832C92.8768 196.028 92.6713 196.193 92.4423 196.319C92.2682 196.423 92.1197 196.564 92.0077 196.733C91.9944 196.757 91.9837 196.782 91.9758 196.808H90.6811C90.3824 196.657 90.106 196.466 89.8596 196.239Z" fill="#00AB55"/>
<path d="M82.1661 201.205C82.0013 201.069 81.8809 200.888 81.8202 200.684C81.7622 200.472 81.8636 200.249 82.0614 200.153C82.289 200.069 82.5165 200.222 82.6985 200.381C82.8806 200.54 83.0831 200.713 83.3198 200.681C83.0744 200.458 82.9632 200.124 83.0262 199.798C83.0363 199.732 83.0647 199.67 83.1081 199.619C83.231 199.487 83.454 199.543 83.6019 199.648C84.0684 199.976 84.1981 200.611 84.2027 201.184C84.2254 200.974 84.2254 200.762 84.2027 200.552C84.1848 200.337 84.2742 200.127 84.4416 199.992C84.5522 199.931 84.6772 199.901 84.8034 199.905C85.0148 199.875 85.229 199.937 85.3927 200.074C85.5523 200.291 85.542 200.589 85.3677 200.795C85.1942 200.991 84.9888 201.155 84.7602 201.282C84.5861 201.387 84.4376 201.529 84.3255 201.698C84.3118 201.721 84.3011 201.746 84.2937 201.771H82.9739C82.6806 201.619 82.4089 201.429 82.1661 201.205Z" fill="#00AB55"/>
<ellipse opacity="0.1" cx="64.6219" cy="66.219" rx="4.92193" ry="4.92193" fill="#00AB55"/>
<ellipse opacity="0.1" cx="301.296" cy="105.551" rx="4.92194" ry="4.92193" fill="#00AB55"/>
<ellipse opacity="0.1" cx="212.819" cy="50.5887" rx="4.92194" ry="4.92193" fill="#00AB55"/>
<ellipse opacity="0.1" cx="74.4655" cy="93.3727" rx="8.24873" ry="8.24873" fill="#00AB55"/>
<path fill-rule="evenodd" clip-rule="evenodd" d="M157.144 159.765C151.074 159.765 146.154 164.686 146.154 170.756C146.154 176.826 151.074 181.747 157.144 181.747C163.214 181.747 168.135 176.826 168.135 170.756C168.135 164.686 163.214 159.765 157.144 159.765V159.765Z" fill="#007B55"/>
<path opacity="0.72" fill-rule="evenodd" clip-rule="evenodd" d="M157.144 161.044C162.508 161.044 166.856 165.392 166.856 170.756C166.856 176.12 162.508 180.468 157.144 180.468C151.78 180.468 147.432 176.12 147.432 170.756C147.437 165.394 151.782 161.049 157.144 161.044Z" fill="#00AB55"/>
<path fill-rule="evenodd" clip-rule="evenodd" d="M152.599 171.559L152.068 171.04C151.953 170.935 151.888 170.789 151.888 170.635C151.888 170.482 151.953 170.335 152.068 170.23L156.731 165.675C156.839 165.563 156.989 165.5 157.146 165.5C157.304 165.5 157.454 165.563 157.561 165.675L162.225 170.226C162.337 170.332 162.401 170.478 162.401 170.631C162.401 170.784 162.337 170.93 162.225 171.036L161.693 171.555C161.584 171.665 161.434 171.727 161.278 171.727C161.121 171.727 160.971 171.665 160.863 171.555L158.105 168.718V175.449C158.107 175.598 158.047 175.741 157.939 175.847C157.831 175.953 157.685 176.012 157.532 176.012H156.764C156.445 176.012 156.187 175.76 156.187 175.449V168.727L153.43 171.563C153.321 171.672 153.17 171.734 153.014 171.733C152.857 171.732 152.708 171.669 152.599 171.559Z" fill="#007B55"/>
<defs>
<linearGradient id="paint0_linear_67_6185" x1="250.594" y1="322.736" x2="384.993" y2="19.8254" gradientUnits="userSpaceOnUse">
<stop stop-color="#00AB55"/>
<stop offset="1" stop-color="#00AB55" stop-opacity="0.01"/>
</linearGradient>
<linearGradient id="paint1_linear_67_6185" x1="136.289" y1="104.454" x2="99.4233" y2="213.312" gradientUnits="userSpaceOnUse">
<stop stop-color="#00AB55"/>
<stop offset="1" stop-color="#007B55"/>
</linearGradient>
</defs>
</svg>
